<svg width="301" height="301" viewBox="0 0 301 301" fill="none" xmlns="http://www.w3.org/2000/svg">
<mask id="mask0_762_120" style="mask-type:alpha" maskUnits="userSpaceOnUse" x="0" y="0" width="301" height="301">
<rect x="0.37207" y="0.163086" width="300" height="300" fill="#D9D9D9"/>
</mask>
<g mask="url(#mask0_762_120)">
<path d="M50.3711 262.663V200.163C50.3711 193.288 52.819 187.403 57.7148 182.507C62.6107 177.611 68.4961 175.163 75.3711 175.163H225.371C232.246 175.163 238.132 177.611 243.027 182.507C247.923 187.403 250.371 193.288 250.371 200.163V262.663H50.3711ZM112.871 162.663C95.5794 162.663 80.8398 156.569 68.6523 144.382C56.4648 132.194 50.3711 117.455 50.3711 100.163C50.3711 82.8714 56.4648 68.1318 68.6523 55.9443C80.8398 43.7568 95.5794 37.6631 112.871 37.6631H187.871C205.163 37.6631 219.902 43.7568 232.09 55.9443C244.277 68.1318 250.371 82.8714 250.371 100.163C250.371 117.455 244.277 132.194 232.09 144.382C219.902 156.569 205.163 162.663 187.871 162.663H112.871ZM75.3711 237.663H225.371V200.163H75.3711V237.663ZM112.871 137.663H187.871C198.288 137.663 207.142 134.017 214.434 126.726C221.725 119.434 225.371 110.58 225.371 100.163C225.371 89.7464 221.725 80.8923 214.434 73.6006C207.142 66.3089 198.288 62.6631 187.871 62.6631H112.871C102.454 62.6631 93.6003 66.3089 86.3086 73.6006C79.0169 80.8923 75.3711 89.7464 75.3711 100.163C75.3711 110.58 79.0169 119.434 86.3086 126.726C93.6003 134.017 102.454 137.663 112.871 137.663ZM112.871 112.663C116.413 112.663 119.382 111.465 121.777 109.069C124.173 106.674 125.371 103.705 125.371 100.163C125.371 96.6214 124.173 93.6527 121.777 91.2568C119.382 88.861 116.413 87.6631 112.871 87.6631C109.329 87.6631 106.361 88.861 103.965 91.2568C101.569 93.6527 100.371 96.6214 100.371 100.163C100.371 103.705 101.569 106.674 103.965 109.069C106.361 111.465 109.329 112.663 112.871 112.663ZM187.871 112.663C191.413 112.663 194.382 111.465 196.777 109.069C199.173 106.674 200.371 103.705 200.371 100.163C200.371 96.6214 199.173 93.6527 196.777 91.2568C194.382 88.861 191.413 87.6631 187.871 87.6631C184.329 87.6631 181.361 88.861 178.965 91.2568C176.569 93.6527 175.371 96.6214 175.371 100.163C175.371 103.705 176.569 106.674 178.965 109.069C181.361 111.465 184.329 112.663 187.871 112.663Z" fill="#60B5A5"/>
</g>
</svg>
