<svg width="300" height="301" viewBox="0 0 300 301" fill="none" xmlns="http://www.w3.org/2000/svg">
<mask id="mask0_762_129" style="mask-type:alpha" maskUnits="userSpaceOnUse" x="0" y="0" width="300" height="301">
<rect y="0.163086" width="300" height="300" fill="#D9D9D9"/>
</mask>
<g mask="url(#mask0_762_129)">
<path d="M62.5 262.663C55.625 262.663 49.7396 260.215 44.8438 255.319C39.9479 250.424 37.5 244.538 37.5 237.663V62.6631C37.5 55.7881 39.9479 49.9027 44.8438 45.0068C49.7396 40.111 55.625 37.6631 62.5 37.6631H212.5L262.5 87.6631V153.913C258.542 152.246 254.427 151.153 250.156 150.632C245.885 150.111 241.667 150.163 237.5 150.788V97.9756L202.188 62.6631H62.5V237.663H137.5V262.663H62.5ZM162.5 287.663V249.226L231.563 180.476C233.438 178.601 235.521 177.246 237.812 176.413C240.104 175.58 242.396 175.163 244.688 175.163C247.188 175.163 249.583 175.632 251.875 176.569C254.167 177.507 256.25 178.913 258.125 180.788L269.688 192.351C271.354 194.226 272.656 196.309 273.594 198.601C274.531 200.892 275 203.184 275 205.476C275 207.767 274.583 210.111 273.75 212.507C272.917 214.903 271.563 217.038 269.688 218.913L200.937 287.663H162.5ZM181.25 268.913H193.125L230.938 230.788L225.313 224.851L219.375 219.226L181.25 257.038V268.913ZM225.313 224.851L219.375 219.226L230.938 230.788L225.313 224.851ZM75 125.163H187.5V75.1631H75V125.163ZM150 225.163H151.25L187.5 189.226V187.663C187.5 177.246 183.854 168.392 176.562 161.101C169.271 153.809 160.417 150.163 150 150.163C139.583 150.163 130.729 153.809 123.438 161.101C116.146 168.392 112.5 177.246 112.5 187.663C112.5 198.08 116.146 206.934 123.438 214.226C130.729 221.517 139.583 225.163 150 225.163Z" fill="#60B5A5"/>
</g>
</svg>
