<svg width="409" height="582" viewBox="0 0 409 582" fill="none" xmlns="http://www.w3.org/2000/svg">
<path d="M12.3683 196.031C12.3683 196.031 286.772 121.264 336.005 1.22461" stroke="white" stroke-width="2"/>
<path d="M6.10022 417.005C6.10022 417.005 379.593 326.532 407.555 28.041" stroke="white" stroke-width="2"/>
<path d="M373.163 19.2402C373.163 19.2402 329.316 135.123 241.907 201.099C154.498 267.076 1 312.592 1 312.592" stroke="white" stroke-width="2"/>
<path d="M43.6704 186.989C43.6704 186.989 124.985 212.748 115.133 268.536C170.905 294.402 162.953 354.55 162.953 354.55" stroke="white" stroke-width="2"/>
<path d="M142.655 149.072C142.655 149.072 218.704 156.421 224.196 213.964C282.073 225.399 282.227 270.419 282.227 270.419" stroke="white" stroke-width="2"/>
<path d="M224.069 108.631C224.069 108.631 282.236 116.505 292.18 151.479C353.732 158.144 344.206 200.149 344.206 200.149" stroke="white" stroke-width="2"/>
<path d="M293.521 57.7988C293.521 57.7988 338.554 64.6091 341.127 86.0159C389.161 86.0159 389.161 115.207 389.161 115.207" stroke="white" stroke-width="2"/>
<path d="M223.096 213.068L223.096 571.487" stroke="white" stroke-width="2"/>
<path fill-rule="evenodd" clip-rule="evenodd" d="M216.102 562.596C215.131 563.145 214.302 563.824 213.66 564.606C212.099 563.896 210.388 563.539 208.681 563.537C206.728 563.539 204.767 564.007 203.034 564.991C202.429 565.334 202.217 566.104 202.56 566.709C202.904 567.314 203.674 567.525 204.278 567.182C205.596 566.433 207.131 566.057 208.681 566.057C209.976 566.057 211.274 566.32 212.451 566.827C212.347 567.169 212.272 567.523 212.23 567.886C212.108 568.947 212.274 569.993 212.682 570.98C209.932 571.098 207.277 572.431 205.599 574.664C205.183 575.221 205.298 576.011 205.856 576.427C206.413 576.844 207.203 576.729 207.619 576.171C208.842 574.518 210.979 573.484 213.061 573.491C213.431 573.491 213.8 573.523 214.163 573.587C214.266 573.606 214.369 573.611 214.47 573.605C216.291 575.442 219.067 576.783 222.281 577.154C225.611 577.539 228.719 576.802 230.929 575.327C232.132 575.479 233.312 575.958 234.322 576.685C235.562 577.575 236.531 578.825 237.003 580.227C237.225 580.887 237.941 581.242 238.6 581.019C239.259 580.796 239.613 580.081 239.391 579.422C238.729 577.467 237.426 575.813 235.792 574.638C234.968 574.047 234.056 573.574 233.09 573.25C233.681 572.402 234.062 571.448 234.181 570.418C234.225 570.031 234.231 569.647 234.202 569.266C234.587 569.133 235.024 569.064 235.485 569.065C235.767 569.065 236.054 569.09 236.334 569.139C237.483 569.332 238.665 569.895 239.924 570.523C240.548 570.831 241.304 570.576 241.612 569.952C241.921 569.328 241.665 568.574 241.041 568.264L240.91 568.199C239.683 567.594 238.335 566.931 236.762 566.656C236.347 566.584 235.918 566.545 235.485 566.545C234.831 566.546 234.157 566.634 233.507 566.841C232.846 565.53 231.755 564.342 230.353 563.388C230.726 562.87 231.197 562.41 231.735 562.039C232.657 561.4 233.764 561.034 234.841 561.036C234.964 561.036 235.087 561.04 235.209 561.05C235.903 561.104 236.509 560.585 236.563 559.892C236.618 559.198 236.098 558.592 235.405 558.538C235.216 558.522 235.029 558.516 234.841 558.516C233.2 558.517 231.622 559.057 230.304 559.965C229.449 560.555 228.7 561.305 228.123 562.183C226.909 561.674 225.563 561.315 224.128 561.15C222.093 560.915 220.141 561.099 218.426 561.615C217.855 560.38 216.99 559.286 215.901 558.449C214.428 557.324 212.607 556.719 210.764 556.717C210.485 556.717 210.208 556.731 209.93 556.76C209.238 556.83 208.734 557.449 208.804 558.141C208.875 558.834 209.494 559.336 210.187 559.266C210.377 559.247 210.57 559.237 210.764 559.237C212.049 559.236 213.357 559.672 214.368 560.45C215.1 561.007 215.698 561.757 216.102 562.596Z" fill="black"/>
</svg>
