<svg width="55" height="57" viewBox="0 0 55 57" fill="none" xmlns="http://www.w3.org/2000/svg">
<g opacity="0.2" clip-path="url(#clip0_102_3)" filter="url(#filter0_d_102_3)">
<path fill-rule="evenodd" clip-rule="evenodd" d="M49.7348 35.2601L50.4136 33.8043C50.6149 33.3743 50.7294 32.9088 50.7505 32.4344C50.7716 31.9601 50.6988 31.4863 50.5364 31.0401C50.374 30.5939 50.1252 30.1842 49.8041 29.8344C49.4831 29.4845 49.0962 29.2015 48.6655 29.0015L40.2942 25.0979L43.2951 18.6624C44.6638 15.7447 44.823 12.4042 43.7382 9.36959C42.7763 6.64389 40.8525 4.3631 38.3279 2.95559C38.0669 2.80143 37.7979 2.6613 37.522 2.53583C36.077 1.87092 34.5151 1.49723 32.9256 1.43608C31.3362 1.37494 29.7502 1.62755 28.2584 2.17949C26.7666 2.73142 25.3981 3.57186 24.2312 4.65279C23.0642 5.73373 22.1217 7.03398 21.4574 8.47927L18.4565 14.9148L10.0851 11.0112C9.65513 10.8098 9.18961 10.6954 8.71527 10.6743C8.24093 10.6532 7.76709 10.726 7.32092 10.8884C6.87475 11.0508 6.46501 11.2996 6.11519 11.6207C5.76536 11.9417 5.48234 12.3286 5.28233 12.7592L4.6035 14.215C4.40204 14.6453 4.28755 15.1112 4.26659 15.5859C4.24563 16.0605 4.31862 16.5347 4.48137 16.9811C4.64412 17.4275 4.89342 17.8373 5.21497 18.1871C5.53652 18.5369 5.92398 18.8198 6.35512 19.0195C7.22407 19.4233 8.21769 19.4661 9.11814 19.1385C10.0186 18.8108 10.7524 18.1395 11.1587 17.2717L8.95179 22.0043C8.6922 22.5621 8.5984 23.1827 8.68154 23.7923C8.76469 24.4019 9.02129 24.9747 9.42077 25.4425C9.82026 25.9104 10.3458 26.2536 10.9348 26.4312C11.5238 26.6089 12.1515 26.6135 12.743 26.4445L12.8565 26.506C11.5907 28.7683 10.167 30.9386 8.59619 33.0007C6.81166 35.1851 8.0387 35.9775 9.73864 37.0754L9.73868 37.0754C10.2063 37.3774 10.7097 37.7026 11.1961 38.0861C11.8416 38.5765 12.3957 39.1768 12.8327 39.8596C13.4512 40.8631 13.5652 41.9481 13.6771 43.0128C13.8619 44.7715 14.0409 46.4749 16.4779 47.665L16.6053 47.7244C19.077 48.8217 20.4948 47.8667 21.9599 46.8798C22.8494 46.2806 23.7563 45.6697 24.927 45.4992C26.4502 45.2791 27.8489 45.7111 29.0434 46.0801C30.9788 46.6778 32.3785 47.1102 32.9051 44.3362C33.4736 41.8039 34.2198 39.3149 35.138 36.8874C35.3891 37.4489 35.7961 37.9265 36.3108 38.2633C36.8254 38.6001 37.426 38.782 38.0411 38.7873C38.6561 38.7926 39.2597 38.6211 39.7801 38.2932C40.3005 37.9652 40.7157 37.4947 40.9763 36.9376L43.1832 32.205C42.7946 33.0714 42.7625 34.0558 43.0938 34.9457C43.4251 35.8355 44.0932 36.5593 44.9537 36.9605C45.8143 37.3618 46.7982 37.4084 47.6928 37.0902C48.5874 36.772 49.3209 36.1146 49.7348 35.2601ZM39.6098 13.2614C39.0474 14.4673 37.6139 14.9891 36.4079 14.4267C35.2019 13.8644 34.6802 12.4309 35.2425 11.2249C35.8049 10.0189 37.2384 9.49711 38.4444 10.0595C39.6504 10.6218 40.1721 12.0554 39.6098 13.2614ZM28.6952 21.4649C29.9012 22.0273 31.5627 21.0167 32.4062 19.2077C33.2497 17.3987 32.9559 15.4764 31.7499 14.914C30.544 14.3516 28.8825 15.3622 28.0389 17.1712C27.1954 18.9802 27.4892 20.9025 28.6952 21.4649ZM32.331 9.8672C31.7686 11.0732 30.3351 11.595 29.1291 11.0326C27.9231 10.4702 27.4014 9.0367 27.9637 7.83071C28.5261 6.62472 29.9596 6.10296 31.1656 6.66532C32.3716 7.22768 32.8934 8.66121 32.331 9.8672Z" fill="#F3F0F3"/>
</g>
<defs>
<filter id="filter0_d_102_3" x="-2" y="0" width="58" height="58" filterUnits="userSpaceOnUse" color-interpolation-filters="sRGB">
<feFlood flood-opacity="0" result="BackgroundImageFix"/>
<feColorMatrix in="SourceAlpha" type="matrix" values="0 0 0 0 0 0 0 0 0 0 0 0 0 0 0 0 0 0 127 0" result="hardAlpha"/>
<feOffset dy="4"/>
<feGaussianBlur stdDeviation="2"/>
<feComposite in2="hardAlpha" operator="out"/>
<feColorMatrix type="matrix" values="0 0 0 0 0 0 0 0 0 0 0 0 0 0 0 0 0 0 0.25 0"/>
<feBlend mode="normal" in2="BackgroundImageFix" result="effect1_dropShadow_102_3"/>
<feBlend mode="normal" in="SourceGraphic" in2="effect1_dropShadow_102_3" result="shape"/>
</filter>
<clipPath id="clip0_102_3">
<rect width="50" height="50" fill="white" transform="translate(2)"/>
</clipPath>
</defs>
</svg>
