<svg width="58" height="58" viewBox="0 0 58 58" fill="none" xmlns="http://www.w3.org/2000/svg">
<g opacity="0.2" clip-path="url(#clip0_102_3)" filter="url(#filter0_d_102_3)">
<path fill-rule="evenodd" clip-rule="evenodd" d="M53.8984 24.7V23.0938C53.8992 22.6189 53.8062 22.1487 53.6248 21.7099C53.4434 21.2711 53.1773 20.8724 52.8415 20.5366C52.5058 20.2009 52.1071 19.9347 51.6683 19.7533C51.2295 19.572 50.7592 19.479 50.2844 19.4797H41.0477V12.3789C41.055 9.1562 39.7876 6.06136 37.5219 3.76954C35.4982 1.7057 32.7907 0.451676 29.9078 0.242973C29.6061 0.213545 29.3031 0.200244 29 0.203129C27.4094 0.211212 25.8359 0.532597 24.3695 1.14892C22.9031 1.76525 21.5725 2.66444 20.4537 3.79514C19.335 4.92583 18.4499 6.26586 17.8491 7.73869C17.2483 9.21152 16.9436 10.7883 16.9523 12.3789V19.4797H7.71563C7.24082 19.479 6.77054 19.572 6.33174 19.7533C5.89293 19.9347 5.49424 20.2009 5.1585 20.5366C4.82275 20.8724 4.55657 21.2711 4.3752 21.7099C4.19384 22.1487 4.10085 22.6189 4.10157 23.0938V24.7C4.10084 25.1751 4.19396 25.6457 4.37557 26.0848C4.55719 26.5239 4.82372 26.9227 5.15987 27.2585C5.49603 27.5943 5.89519 27.8604 6.33444 28.0416C6.7737 28.2227 7.2444 28.3153 7.71954 28.3141C8.67774 28.3128 9.59635 27.9317 10.274 27.2542C10.9516 26.5767 11.3329 25.6582 11.3344 24.7V29.9219C11.3348 30.5371 11.5121 31.1392 11.8451 31.6565C12.178 32.1738 12.6527 32.5845 13.2125 32.8397C13.7723 33.0949 14.3936 33.1839 15.0025 33.0959C15.6114 33.008 16.1822 32.7469 16.6469 32.3438L16.7758 32.3516C16.5846 34.9368 16.2115 37.5054 15.6594 40.0383C14.9652 42.7722 16.4122 42.9718 18.4168 43.2484H18.4169C18.9683 43.3245 19.562 43.4064 20.1648 43.5484C20.9572 43.72 21.713 44.03 22.3977 44.4641C23.3822 45.1122 23.9441 46.0473 24.4955 46.965C25.4063 48.4808 26.2884 49.949 29 49.9977H29.1406C31.8444 49.9476 32.7258 48.4828 33.6365 46.9692C34.1895 46.0503 34.7532 45.1134 35.7422 44.4641C37.0297 43.6208 38.4799 43.4213 39.7184 43.2508C41.7251 42.9746 43.1764 42.7749 42.4813 40.0383C41.9264 37.503 41.5507 34.9318 41.357 32.3438C41.8219 32.7466 42.3926 33.0074 43.0014 33.0951C43.6102 33.1829 44.2313 33.0939 44.791 32.8387C45.3506 32.5836 45.8252 32.1731 46.1583 31.656C46.4913 31.1388 46.6688 30.5369 46.6695 29.9219V24.7C46.6835 25.6494 47.0704 26.5552 47.7468 27.2217C48.4231 27.8881 49.3345 28.2617 50.284 28.2617C51.2335 28.2617 52.1449 27.8881 52.8212 27.2217C53.4975 26.5552 53.8845 25.6494 53.8984 24.7ZM35.425 9.04141C35.425 10.3721 34.3463 11.4508 33.0156 11.4508C31.685 11.4508 30.6063 10.3721 30.6063 9.04141C30.6063 7.71075 31.685 6.63203 33.0156 6.63203C34.3463 6.63203 35.425 7.71075 35.425 9.04141ZM29 21.0891C30.3307 21.0891 31.4094 19.471 31.4094 17.475C31.4094 15.479 30.3307 13.8609 29 13.8609C27.6694 13.8609 26.5906 15.479 26.5906 17.475C26.5906 19.471 27.6694 21.0891 29 21.0891ZM27.3938 9.04141C27.3938 10.3721 26.3151 11.4508 24.9844 11.4508C23.6537 11.4508 22.575 10.3721 22.575 9.04141C22.575 7.71075 23.6537 6.63203 24.9844 6.63203C26.3151 6.63203 27.3938 7.71075 27.3938 9.04141Z" fill="#F3F0F3"/>
</g>
<defs>
<filter id="filter0_d_102_3" x="0" y="0" width="58" height="58" filterUnits="userSpaceOnUse" color-interpolation-filters="sRGB">
<feFlood flood-opacity="0" result="BackgroundImageFix"/>
<feColorMatrix in="SourceAlpha" type="matrix" values="0 0 0 0 0 0 0 0 0 0 0 0 0 0 0 0 0 0 127 0" result="hardAlpha"/>
<feOffset dy="4"/>
<feGaussianBlur stdDeviation="2"/>
<feComposite in2="hardAlpha" operator="out"/>
<feColorMatrix type="matrix" values="0 0 0 0 0 0 0 0 0 0 0 0 0 0 0 0 0 0 0.25 0"/>
<feBlend mode="normal" in2="BackgroundImageFix" result="effect1_dropShadow_102_3"/>
<feBlend mode="normal" in="SourceGraphic" in2="effect1_dropShadow_102_3" result="shape"/>
</filter>
<clipPath id="clip0_102_3">
<rect width="50" height="50" fill="white" transform="translate(4)"/>
</clipPath>
</defs>
</svg>
